<svg width="89" height="78" viewBox="0 0 89 78" fill="none" xmlns="http://www.w3.org/2000/svg">
<path d="M18.75 77.25C13.9167 77.25 9.75 75.8333 6.25 73C2.91667 70 0.833334 65.0833 2.68221e-07 58.25C2.68221e-07 57.4167 2.68221e-07 54.9167 2.68221e-07 50.75C2.68221e-07 46.5833 0.25 42.5 0.750001 38.5C1.25 34.3333 2.08333 30.5 3.25 27C6.58333 17.8333 11 9.24999 16.5 1.24999C17.3333 0.416661 18.1667 -5.24521e-06 19 -5.24521e-06C19.8333 -5.24521e-06 20.8333 0.416661 22 1.24999L26.5 3.99999C29.5 5.66665 31 6.74999 31 7.24999C30.8333 8.58333 29.75 10.5 27.75 13C24.0833 17.6667 21.8333 22 21 26C20.6667 28 20.5 30.5 20.5 33.5C20.5 38.5 21.8333 41.4167 24.5 42.25C29.5 43.75 32.6667 46.1667 34 49.5C35.5 52.8333 36.25 57.5 36.25 63.5C36.25 67.3333 34.4167 70.5833 30.75 73.25C27.0833 75.9167 23.0833 77.25 18.75 77.25ZM69.25 77C63.5833 76 59.3333 74.25 56.5 71.75C53.8333 69.25 52.3333 64.75 52 58.25C52 57.4167 52 54.9167 52 50.75C52 46.5833 52.25 42.5 52.75 38.5C53.25 34.3333 54.0833 30.5 55.25 27C59.25 18.1667 64.0833 9.58333 69.75 1.24999C70.25 0.583326 70.9167 0.249992 71.75 0.249992C73.4167 0.249992 75.3333 1.24999 77.5 3.25C79.8333 5.24999 81.1667 6.58332 81.5 7.24999C81 8.91666 79.75 10.9167 77.75 13.25C77.5833 13.5833 76.5833 15 74.75 17.5C73.0833 19.8333 71.6667 22.5833 70.5 25.75C69.8333 29.75 69.5 33.3333 69.5 36.5C69.5 38.3333 69.6667 39.75 70 40.75C71 42.4167 73.9167 43.6667 78.75 44.5C82.9167 45.8333 85.5833 47.6667 86.75 50C88.0833 52.3333 88.75 56.25 88.75 61.75C88.25 72.4167 81.75 77.5 69.25 77Z" fill="#C1281B"/>
</svg>
