<svg width="36" height="36" viewBox="0 0 36 36" fill="none" xmlns="http://www.w3.org/2000/svg">
<circle cx="18" cy="18" r="18" fill="url(#paint0_linear_56_7)"/>
<path d="M22.2857 23.4567V11.3658H13.7143V23.4567H22.2857ZM22.2857 7.91125C22.7404 7.91125 23.1764 8.09323 23.4979 8.41716C23.8194 8.74109 24 9.18043 24 9.63853V25.184C24 25.6421 23.8194 26.0814 23.4979 26.4053C23.1764 26.7293 22.7404 26.9113 22.2857 26.9113H13.7143C12.7629 26.9113 12 26.134 12 25.184V9.63853C12 8.67989 12.7629 7.91125 13.7143 7.91125H22.2857ZM15.4286 13.0931H20.5714V14.8203H15.4286V13.0931ZM15.4286 16.5476H18.8571V18.2749H15.4286V16.5476Z" fill="white"/>
<defs>
<linearGradient id="paint0_linear_56_7" x1="2" y1="-1.5" x2="23" y2="24" gradientUnits="userSpaceOnUse">
<stop stop-color="#C1281B"/>
<stop offset="1" stop-color="#7E0A00"/>
</linearGradient>
</defs>
</svg>
