<svg width="36" height="36" viewBox="0 0 36 36" fill="none" xmlns="http://www.w3.org/2000/svg">
<circle cx="18" cy="18" r="18" fill="url(#paint0_linear_49_3)"/>
<path d="M26 17.0022C26 22.0476 22.5867 26.7658 18 27.9113C13.4133 26.7658 10 22.0476 10 17.0022V11.5476L18 7.91125L26 11.5476V17.0022ZM18 26.0931C21.3333 25.184 24.2222 21.1294 24.2222 17.2022V12.7294L18 9.89307L11.7778 12.7294V17.2022C11.7778 21.1294 14.6667 25.184 18 26.0931ZM18 15.084C19.4222 15.084 20.5689 16.2567 20.5689 17.7113C20.5689 19.1658 19.4222 20.3385 18 20.3385C16.5778 20.3385 15.4311 19.1567 15.4311 17.7113C15.4311 16.2658 16.5867 15.084 18 15.084ZM18 12.4567L19.2267 14.2749C18.8533 14.1113 18.4444 14.0294 18 14.0294C17.5556 14.0294 17.1556 14.1113 16.7733 14.2749L18 12.4567ZM13.5556 15.084L15.6889 14.9022C15.3867 15.184 15.1022 15.4931 14.8889 15.8749C14.6667 16.2567 14.5333 16.6567 14.4444 17.0749L13.5556 15.084ZM13.5556 20.3385L14.4711 18.3658C14.5422 18.7567 14.6844 19.1658 14.8889 19.5476C15.1111 19.9385 15.3867 20.2658 15.6889 20.5294L13.5556 20.3385ZM22.4444 15.084L21.5556 17.0749C21.4667 16.6567 21.3244 16.2567 21.1111 15.8749C20.8978 15.4931 20.6222 15.184 20.3111 14.8931L22.4444 15.084ZM22.4444 20.3385L20.3111 20.5203C20.6133 20.2567 20.8889 19.9294 21.1111 19.5476C21.3244 19.1658 21.4578 18.7567 21.5289 18.3658L22.4444 20.3385ZM18 22.9567L16.7644 21.1567C17.1467 21.2931 17.5556 21.384 18 21.384C18.4444 21.384 18.8444 21.2931 19.2178 21.1567L18 22.9567Z" fill="white"/>
<defs>
<linearGradient id="paint0_linear_49_3" x1="2" y1="-1.5" x2="23" y2="24" gradientUnits="userSpaceOnUse">
<stop stop-color="#C1281B"/>
<stop offset="1" stop-color="#7E0A00"/>
</linearGradient>
</defs>
</svg>
