<svg width="344" height="364" viewBox="0 0 344 364" fill="none" xmlns="http://www.w3.org/2000/svg">
<line y1="180.14" x2="143" y2="180.14" stroke="black" stroke-width="1.59443" stroke-dasharray="3.19 3.19"/>
<path d="M214.5 46.6916L214.5 45.6916L213.901 45.6916L213.619 46.2191L214.5 46.6916ZM328.707 47.3986C329.098 47.0081 329.098 46.3749 328.707 45.9844L322.343 39.6205C321.953 39.2299 321.319 39.2299 320.929 39.6205C320.538 40.011 320.538 40.6442 320.929 41.0347L326.586 46.6915L320.929 52.3484C320.538 52.7389 320.538 53.3721 320.929 53.7626C321.319 54.1531 321.953 54.1531 322.343 53.7626L328.707 47.3986ZM142 181.937L142.882 182.41L143.836 180.63L142.954 180.158L142.073 179.685L141.119 181.465L142 181.937ZM144.862 176.599L145.744 177.071L147.651 173.512L146.77 173.04L145.889 172.567L143.981 176.126L144.862 176.599ZM148.678 169.48L149.559 169.953L151.467 166.394L150.586 165.921L149.705 165.449L147.797 169.008L148.678 169.48ZM152.494 162.362L153.375 162.835L155.283 159.276L154.402 158.803L153.52 158.331L151.612 161.89L152.494 162.362ZM156.31 155.244L157.191 155.717L159.099 152.157L158.217 151.685L157.336 151.213L155.428 154.772L156.31 155.244ZM160.125 148.126L161.007 148.598L162.915 145.039L162.033 144.567L161.152 144.094L159.244 147.653L160.125 148.126ZM163.941 141.008L164.822 141.48L166.73 137.921L165.849 137.449L164.968 136.976L163.06 140.535L163.941 141.008ZM167.757 133.889L168.638 134.362L170.546 130.803L169.665 130.33L168.783 129.858L166.875 133.417L167.757 133.889ZM171.573 126.771L172.454 127.244L174.362 123.685L173.48 123.212L172.599 122.74L170.691 126.299L171.573 126.771ZM175.388 119.653L176.27 120.126L178.178 116.566L177.296 116.094L176.415 115.622L174.507 119.181L175.388 119.653ZM179.204 112.535L180.086 113.007L181.993 109.448L181.112 108.976L180.231 108.503L178.323 112.062L179.204 112.535ZM183.02 105.417L183.901 105.889L185.809 102.33L184.928 101.858L184.046 101.385L182.139 104.944L183.02 105.417ZM186.836 98.2985L187.717 98.7709L189.625 95.2118L188.744 94.7394L187.862 94.2669L185.954 97.826L186.836 98.2985ZM190.651 91.1803L191.533 91.6527L193.441 88.0936L192.559 87.6212L191.678 87.1487L189.77 90.7078L190.651 91.1803ZM194.467 84.0621L195.349 84.5345L197.256 80.9754L196.375 80.503L195.494 80.0305L193.586 83.5896L194.467 84.0621ZM198.283 76.9439L199.164 77.4163L201.072 73.8572L200.191 73.3848L199.31 72.9123L197.402 76.4714L198.283 76.9439ZM202.099 69.8257L202.98 70.2981L204.888 66.739L204.007 66.2666L203.125 65.7941L201.217 69.3532L202.099 69.8257ZM205.915 62.7075L206.796 63.1799L208.704 59.6208L207.822 59.1484L206.941 58.6759L205.033 62.235L205.915 62.7075ZM209.73 55.5893L210.612 56.0617L212.52 52.5026L211.638 52.0302L210.757 51.5577L208.849 55.1168L209.73 55.5893ZM213.546 48.4711L214.427 48.9435L215.381 47.164L214.5 46.6916L213.619 46.2191L212.665 47.9986L213.546 48.4711ZM214.5 46.6916L214.5 47.6916L216.527 47.6916L216.527 46.6916L216.527 45.6916L214.5 45.6916L214.5 46.6916ZM220.58 46.6916L220.58 47.6916L224.634 47.6916L224.634 46.6916L224.634 45.6916L220.58 45.6916L220.58 46.6916ZM228.688 46.6916L228.688 47.6916L232.741 47.6916L232.741 46.6916L232.741 45.6916L228.688 45.6916L228.688 46.6916ZM236.795 46.6916L236.795 47.6916L240.848 47.6916L240.848 46.6916L240.848 45.6916L236.795 45.6916L236.795 46.6916ZM244.902 46.6916L244.902 47.6916L248.955 47.6916L248.955 46.6916L248.955 45.6916L244.902 45.6916L244.902 46.6916ZM253.009 46.6916L253.009 47.6916L257.063 47.6916L257.063 46.6916L257.063 45.6916L253.009 45.6916L253.009 46.6916ZM261.116 46.6916L261.116 47.6916L265.17 47.6916L265.17 46.6915L265.17 45.6915L261.116 45.6915L261.116 46.6916ZM269.223 46.6915L269.223 47.6915L273.277 47.6915L273.277 46.6915L273.277 45.6915L269.223 45.6916L269.223 46.6915ZM277.33 46.6915L277.33 47.6915L281.384 47.6915L281.384 46.6915L281.384 45.6915L277.33 45.6915L277.33 46.6915ZM285.438 46.6915L285.438 47.6915L289.491 47.6915L289.491 46.6915L289.491 45.6915L285.438 45.6915L285.438 46.6915ZM293.545 46.6915L293.545 47.6915L297.598 47.6915L297.598 46.6915L297.598 45.6915L293.545 45.6915L293.545 46.6915ZM301.652 46.6915L301.652 47.6915L305.705 47.6915L305.705 46.6915L305.705 45.6915L301.652 45.6915L301.652 46.6915ZM309.759 46.6915L309.759 47.6915L313.813 47.6915L313.813 46.6915L313.813 45.6915L309.759 45.6915L309.759 46.6915ZM317.866 46.6915L317.866 47.6915L321.92 47.6915L321.92 46.6915L321.92 45.6915L317.866 45.6915L317.866 46.6915ZM325.973 46.6915L325.973 47.6915L328 47.6915L328 46.6915L328 45.6915L325.973 45.6915L325.973 46.6915ZM214.5 46.6916L214.5 45.6916L213.901 45.6916L213.619 46.2191L214.5 46.6916ZM328.707 47.3986C329.098 47.0081 329.098 46.3749 328.707 45.9844L322.343 39.6205C321.953 39.2299 321.319 39.2299 320.929 39.6205C320.538 40.011 320.538 40.6442 320.929 41.0347L326.586 46.6915L320.929 52.3484C320.538 52.7389 320.538 53.3721 320.929 53.7626C321.319 54.1531 321.953 54.1531 322.343 53.7626L328.707 47.3986ZM142 181.937L142.882 182.41L143.836 180.63L142.954 180.158L142.073 179.685L141.119 181.465L142 181.937ZM144.862 176.599L145.744 177.071L147.651 173.512L146.77 173.04L145.889 172.567L143.981 176.126L144.862 176.599ZM148.678 169.48L149.559 169.953L151.467 166.394L150.586 165.921L149.705 165.449L147.797 169.008L148.678 169.48ZM152.494 162.362L153.375 162.835L155.283 159.276L154.402 158.803L153.52 158.331L151.612 161.89L152.494 162.362ZM156.31 155.244L157.191 155.717L159.099 152.157L158.217 151.685L157.336 151.213L155.428 154.772L156.31 155.244ZM160.125 148.126L161.007 148.598L162.915 145.039L162.033 144.567L161.152 144.094L159.244 147.653L160.125 148.126ZM163.941 141.008L164.822 141.48L166.73 137.921L165.849 137.449L164.968 136.976L163.06 140.535L163.941 141.008ZM167.757 133.889L168.638 134.362L170.546 130.803L169.665 130.33L168.783 129.858L166.875 133.417L167.757 133.889ZM171.573 126.771L172.454 127.244L174.362 123.685L173.48 123.212L172.599 122.74L170.691 126.299L171.573 126.771ZM175.388 119.653L176.27 120.126L178.178 116.566L177.296 116.094L176.415 115.622L174.507 119.181L175.388 119.653ZM179.204 112.535L180.086 113.007L181.993 109.448L181.112 108.976L180.231 108.503L178.323 112.062L179.204 112.535ZM183.02 105.417L183.901 105.889L185.809 102.33L184.928 101.858L184.046 101.385L182.139 104.944L183.02 105.417ZM186.836 98.2985L187.717 98.7709L189.625 95.2118L188.744 94.7394L187.862 94.2669L185.954 97.826L186.836 98.2985ZM190.651 91.1803L191.533 91.6527L193.441 88.0936L192.559 87.6212L191.678 87.1487L189.77 90.7078L190.651 91.1803ZM194.467 84.0621L195.349 84.5345L197.256 80.9754L196.375 80.503L195.494 80.0305L193.586 83.5896L194.467 84.0621ZM198.283 76.9439L199.164 77.4163L201.072 73.8572L200.191 73.3848L199.31 72.9123L197.402 76.4714L198.283 76.9439ZM202.099 69.8257L202.98 70.2981L204.888 66.739L204.007 66.2666L203.125 65.7941L201.217 69.3532L202.099 69.8257ZM205.915 62.7075L206.796 63.1799L208.704 59.6208L207.822 59.1484L206.941 58.6759L205.033 62.235L205.915 62.7075ZM209.73 55.5893L210.612 56.0617L212.52 52.5026L211.638 52.0302L210.757 51.5577L208.849 55.1168L209.73 55.5893ZM213.546 48.4711L214.427 48.9435L215.381 47.164L214.5 46.6916L213.619 46.2191L212.665 47.9986L213.546 48.4711ZM214.5 46.6916L214.5 47.6916L216.527 47.6916L216.527 46.6916L216.527 45.6916L214.5 45.6916L214.5 46.6916ZM220.58 46.6916L220.58 47.6916L224.634 47.6916L224.634 46.6916L224.634 45.6916L220.58 45.6916L220.58 46.6916ZM228.688 46.6916L228.688 47.6916L232.741 47.6916L232.741 46.6916L232.741 45.6916L228.688 45.6916L228.688 46.6916ZM236.795 46.6916L236.795 47.6916L240.848 47.6916L240.848 46.6916L240.848 45.6916L236.795 45.6916L236.795 46.6916ZM244.902 46.6916L244.902 47.6916L248.955 47.6916L248.955 46.6916L248.955 45.6916L244.902 45.6916L244.902 46.6916ZM253.009 46.6916L253.009 47.6916L257.063 47.6916L257.063 46.6916L257.063 45.6916L253.009 45.6916L253.009 46.6916ZM261.116 46.6916L261.116 47.6916L265.17 47.6916L265.17 46.6915L265.17 45.6915L261.116 45.6915L261.116 46.6916ZM269.223 46.6915L269.223 47.6915L273.277 47.6915L273.277 46.6915L273.277 45.6915L269.223 45.6916L269.223 46.6915ZM277.33 46.6915L277.33 47.6915L281.384 47.6915L281.384 46.6915L281.384 45.6915L277.33 45.6915L277.33 46.6915ZM285.438 46.6915L285.438 47.6915L289.491 47.6915L289.491 46.6915L289.491 45.6915L285.438 45.6915L285.438 46.6915ZM293.545 46.6915L293.545 47.6915L297.598 47.6915L297.598 46.6915L297.598 45.6915L293.545 45.6915L293.545 46.6915ZM301.652 46.6915L301.652 47.6915L305.705 47.6915L305.705 46.6915L305.705 45.6915L301.652 45.6915L301.652 46.6915ZM309.759 46.6915L309.759 47.6915L313.813 47.6915L313.813 46.6915L313.813 45.6915L309.759 45.6915L309.759 46.6915ZM317.866 46.6915L317.866 47.6915L321.92 47.6915L321.92 46.6915L321.92 45.6915L317.866 45.6915L317.866 46.6915ZM325.973 46.6915L325.973 47.6915L328 47.6915L328 46.6915L328 45.6915L325.973 45.6915L325.973 46.6915Z" fill="black"/>
<path d="M214.491 316.937L214.491 317.937L213.893 317.937L213.61 317.41L214.491 316.937ZM328.698 316.23C329.089 316.621 329.089 317.254 328.698 317.644L322.334 324.008C321.944 324.399 321.311 324.399 320.92 324.008C320.53 323.618 320.53 322.985 320.92 322.594L326.577 316.937L320.92 311.281C320.53 310.89 320.53 310.257 320.92 309.866C321.311 309.476 321.944 309.476 322.334 309.866L328.698 316.23ZM141.992 181.692L142.873 181.219L143.827 182.999L142.946 183.471L142.064 183.944L141.11 182.164L141.992 181.692ZM144.853 187.03L145.735 186.558L147.643 190.117L146.761 190.589L145.88 191.062L143.972 187.503L144.853 187.03ZM148.669 194.148L149.551 193.676L151.458 197.235L150.577 197.708L149.696 198.18L147.788 194.621L148.669 194.148ZM152.485 201.267L153.366 200.794L155.274 204.353L154.393 204.826L153.511 205.298L151.604 201.739L152.485 201.267ZM156.301 208.385L157.182 207.912L159.09 211.471L158.209 211.944L157.327 212.416L155.419 208.857L156.301 208.385ZM160.117 215.503L160.998 215.031L162.906 218.59L162.024 219.062L161.143 219.535L159.235 215.975L160.117 215.503ZM163.932 222.621L164.814 222.149L166.722 225.708L165.84 226.18L164.959 226.653L163.051 223.094L163.932 222.621ZM167.748 229.739L168.629 229.267L170.537 232.826L169.656 233.299L168.775 233.771L166.867 230.212L167.748 229.739ZM171.564 236.858L172.445 236.385L174.353 239.944L173.472 240.417L172.59 240.889L170.682 237.33L171.564 236.858ZM175.38 243.976L176.261 243.503L178.169 247.062L177.287 247.535L176.406 248.007L174.498 244.448L175.38 243.976ZM179.195 251.094L180.077 250.622L181.985 254.181L181.103 254.653L180.222 255.126L178.314 251.566L179.195 251.094ZM183.011 258.212L183.892 257.74L185.8 261.299L184.919 261.771L184.038 262.244L182.13 258.685L183.011 258.212ZM186.827 265.33L187.708 264.858L189.616 268.417L188.735 268.89L187.853 269.362L185.946 265.803L186.827 265.33ZM190.643 272.449L191.524 271.976L193.432 275.535L192.551 276.008L191.669 276.48L189.761 272.921L190.643 272.449ZM194.458 279.567L195.34 279.094L197.248 282.653L196.366 283.126L195.485 283.598L193.577 280.039L194.458 279.567ZM198.274 286.685L199.156 286.213L201.063 289.772L200.182 290.244L199.301 290.717L197.393 287.157L198.274 286.685ZM202.09 293.803L202.971 293.331L204.879 296.89L203.998 297.362L203.117 297.835L201.209 294.276L202.09 293.803ZM205.906 300.921L206.787 300.449L208.695 304.008L207.814 304.481L206.932 304.953L205.024 301.394L205.906 300.921ZM209.722 308.04L210.603 307.567L212.511 311.126L211.629 311.599L210.748 312.071L208.84 308.512L209.722 308.04ZM213.537 315.158L214.419 314.685L215.373 316.465L214.491 316.937L213.61 317.41L212.656 315.63L213.537 315.158ZM214.491 316.937L214.491 315.937L216.518 315.937L216.518 316.937L216.518 317.937L214.491 317.937L214.491 316.937ZM220.572 316.937L220.572 315.937L224.625 315.937L224.625 316.937L224.625 317.937L220.572 317.937L220.572 316.937ZM228.679 316.937L228.679 315.937L232.732 315.937L232.732 316.937L232.732 317.937L228.679 317.937L228.679 316.937ZM236.786 316.937L236.786 315.937L240.839 315.937L240.839 316.937L240.839 317.937L236.786 317.937L236.786 316.937ZM244.893 316.937L244.893 315.937L248.947 315.937L248.947 316.937L248.947 317.937L244.893 317.937L244.893 316.937ZM253 316.937L253 315.937L257.054 315.937L257.054 316.937L257.054 317.937L253 317.937L253 316.937ZM261.107 316.937L261.107 315.937L265.161 315.937L265.161 316.937L265.161 317.937L261.107 317.937L261.107 316.937ZM269.214 316.937L269.214 315.937L273.268 315.937L273.268 316.937L273.268 317.937L269.214 317.937L269.214 316.937ZM277.322 316.937L277.322 315.937L281.375 315.937L281.375 316.937L281.375 317.937L277.322 317.937L277.322 316.937ZM285.429 316.937L285.429 315.937L289.482 315.937L289.482 316.937L289.482 317.937L285.429 317.937L285.429 316.937ZM293.536 316.937L293.536 315.937L297.589 315.937L297.589 316.937L297.589 317.937L293.536 317.937L293.536 316.937ZM301.643 316.937L301.643 315.937L305.697 315.937L305.697 316.937L305.697 317.937L301.643 317.937L301.643 316.937ZM309.75 316.937L309.75 315.937L313.804 315.937L313.804 316.937L313.804 317.937L309.75 317.937L309.75 316.937ZM317.857 316.937L317.857 315.937L321.911 315.937L321.911 316.937L321.911 317.937L317.857 317.937L317.857 316.937ZM325.964 316.937L325.964 315.937L327.991 315.937L327.991 316.937L327.991 317.937L325.964 317.937L325.964 316.937ZM214.491 316.937L214.491 317.937L213.893 317.937L213.61 317.41L214.491 316.937ZM328.698 316.23C329.089 316.621 329.089 317.254 328.698 317.644L322.334 324.008C321.944 324.399 321.311 324.399 320.92 324.008C320.53 323.618 320.53 322.985 320.92 322.594L326.577 316.937L320.92 311.281C320.53 310.89 320.53 310.257 320.92 309.866C321.311 309.476 321.944 309.476 322.334 309.866L328.698 316.23ZM141.992 181.692L142.873 181.219L143.827 182.999L142.946 183.471L142.064 183.944L141.11 182.164L141.992 181.692ZM144.853 187.03L145.735 186.558L147.643 190.117L146.761 190.589L145.88 191.062L143.972 187.503L144.853 187.03ZM148.669 194.148L149.551 193.676L151.458 197.235L150.577 197.708L149.696 198.18L147.788 194.621L148.669 194.148ZM152.485 201.267L153.366 200.794L155.274 204.353L154.393 204.826L153.511 205.298L151.604 201.739L152.485 201.267ZM156.301 208.385L157.182 207.912L159.09 211.471L158.209 211.944L157.327 212.416L155.419 208.857L156.301 208.385ZM160.117 215.503L160.998 215.031L162.906 218.59L162.024 219.062L161.143 219.535L159.235 215.975L160.117 215.503ZM163.932 222.621L164.814 222.149L166.722 225.708L165.84 226.18L164.959 226.653L163.051 223.094L163.932 222.621ZM167.748 229.739L168.629 229.267L170.537 232.826L169.656 233.299L168.775 233.771L166.867 230.212L167.748 229.739ZM171.564 236.858L172.445 236.385L174.353 239.944L173.472 240.417L172.59 240.889L170.682 237.33L171.564 236.858ZM175.38 243.976L176.261 243.503L178.169 247.062L177.287 247.535L176.406 248.007L174.498 244.448L175.38 243.976ZM179.195 251.094L180.077 250.622L181.985 254.181L181.103 254.653L180.222 255.126L178.314 251.566L179.195 251.094ZM183.011 258.212L183.892 257.74L185.8 261.299L184.919 261.771L184.038 262.244L182.13 258.685L183.011 258.212ZM186.827 265.33L187.708 264.858L189.616 268.417L188.735 268.89L187.853 269.362L185.946 265.803L186.827 265.33ZM190.643 272.449L191.524 271.976L193.432 275.535L192.551 276.008L191.669 276.48L189.761 272.921L190.643 272.449ZM194.458 279.567L195.34 279.094L197.248 282.653L196.366 283.126L195.485 283.598L193.577 280.039L194.458 279.567ZM198.274 286.685L199.156 286.213L201.063 289.772L200.182 290.244L199.301 290.717L197.393 287.157L198.274 286.685ZM202.09 293.803L202.971 293.331L204.879 296.89L203.998 297.362L203.117 297.835L201.209 294.276L202.09 293.803ZM205.906 300.921L206.787 300.449L208.695 304.008L207.814 304.481L206.932 304.953L205.024 301.394L205.906 300.921ZM209.722 308.04L210.603 307.567L212.511 311.126L211.629 311.599L210.748 312.071L208.84 308.512L209.722 308.04ZM213.537 315.158L214.419 314.685L215.373 316.465L214.491 316.937L213.61 317.41L212.656 315.63L213.537 315.158ZM214.491 316.937L214.491 315.937L216.518 315.937L216.518 316.937L216.518 317.937L214.491 317.937L214.491 316.937ZM220.572 316.937L220.572 315.937L224.625 315.937L224.625 316.937L224.625 317.937L220.572 317.937L220.572 316.937ZM228.679 316.937L228.679 315.937L232.732 315.937L232.732 316.937L232.732 317.937L228.679 317.937L228.679 316.937ZM236.786 316.937L236.786 315.937L240.839 315.937L240.839 316.937L240.839 317.937L236.786 317.937L236.786 316.937ZM244.893 316.937L244.893 315.937L248.947 315.937L248.947 316.937L248.947 317.937L244.893 317.937L244.893 316.937ZM253 316.937L253 315.937L257.054 315.937L257.054 316.937L257.054 317.937L253 317.937L253 316.937ZM261.107 316.937L261.107 315.937L265.161 315.937L265.161 316.937L265.161 317.937L261.107 317.937L261.107 316.937ZM269.214 316.937L269.214 315.937L273.268 315.937L273.268 316.937L273.268 317.937L269.214 317.937L269.214 316.937ZM277.322 316.937L277.322 315.937L281.375 315.937L281.375 316.937L281.375 317.937L277.322 317.937L277.322 316.937ZM285.429 316.937L285.429 315.937L289.482 315.937L289.482 316.937L289.482 317.937L285.429 317.937L285.429 316.937ZM293.536 316.937L293.536 315.937L297.589 315.937L297.589 316.937L297.589 317.937L293.536 317.937L293.536 316.937ZM301.643 316.937L301.643 315.937L305.697 315.937L305.697 316.937L305.697 317.937L301.643 317.937L301.643 316.937ZM309.75 316.937L309.75 315.937L313.804 315.937L313.804 316.937L313.804 317.937L309.75 317.937L309.75 316.937ZM317.857 316.937L317.857 315.937L321.911 315.937L321.911 316.937L321.911 317.937L317.857 317.937L317.857 316.937ZM325.964 316.937L325.964 315.937L327.991 315.937L327.991 316.937L327.991 317.937L325.964 317.937L325.964 316.937Z" fill="black"/>
<path d="M329.207 182.399C329.598 182.008 329.598 181.375 329.207 180.985L322.843 174.621C322.453 174.23 321.819 174.23 321.429 174.621C321.038 175.011 321.038 175.644 321.429 176.035L327.086 181.692L321.429 187.349C321.038 187.739 321.038 188.372 321.429 188.763C321.819 189.153 322.453 189.153 322.843 188.763L329.207 182.399ZM143 181.692V182.692H145.016V181.692V180.692H143V181.692ZM149.049 181.692V182.692H153.082V181.692V180.692H149.049V181.692ZM157.114 181.692V182.692H161.147V181.692V180.692H157.114V181.692ZM165.179 181.692V182.692H169.212V181.692V180.692H165.179V181.692ZM173.245 181.692V182.692H177.277V181.692V180.692H173.245V181.692ZM181.31 181.692V182.692H185.342V181.692V180.692H181.31V181.692ZM189.375 181.692V182.692H193.408V181.692V180.692H189.375V181.692ZM197.44 181.692V182.692H201.473V181.692V180.692H197.44V181.692ZM205.505 181.692V182.692H209.538V181.692V180.692H205.505V181.692ZM213.571 181.692V182.692H217.603V181.692V180.692H213.571V181.692ZM221.636 181.692V182.692H225.668V181.692V180.692H221.636V181.692ZM229.701 181.692V182.692H233.734V181.692V180.692H229.701V181.692ZM237.766 181.692V182.692H241.799V181.692V180.692H237.766V181.692ZM245.832 181.692V182.692H249.864V181.692V180.692H245.832V181.692ZM253.897 181.692V182.692H257.929V181.692V180.692H253.897V181.692ZM261.962 181.692V182.692H265.995V181.692V180.692H261.962V181.692ZM270.027 181.692V182.692H274.06V181.692V180.692H270.027V181.692ZM278.092 181.692V182.692H282.125V181.692V180.692H278.092V181.692ZM286.158 181.692V182.692H290.19V181.692V180.692H286.158V181.692ZM294.223 181.692V182.692H298.255V181.692V180.692H294.223V181.692ZM302.288 181.692V182.692H306.321V181.692V180.692H302.288V181.692ZM310.353 181.692V182.692H314.386V181.692V180.692H310.353V181.692ZM318.418 181.692V182.692H322.451V181.692V180.692H318.418V181.692ZM326.484 181.692V182.692H328.5V181.692V180.692H326.484V181.692ZM329.207 182.399C329.598 182.008 329.598 181.375 329.207 180.985L322.843 174.621C322.453 174.23 321.819 174.23 321.429 174.621C321.038 175.011 321.038 175.644 321.429 176.035L327.086 181.692L321.429 187.349C321.038 187.739 321.038 188.372 321.429 188.763C321.819 189.153 322.453 189.153 322.843 188.763L329.207 182.399ZM143 181.692V182.692H145.016V181.692V180.692H143V181.692ZM149.049 181.692V182.692H153.082V181.692V180.692H149.049V181.692ZM157.114 181.692V182.692H161.147V181.692V180.692H157.114V181.692ZM165.179 181.692V182.692H169.212V181.692V180.692H165.179V181.692ZM173.245 181.692V182.692H177.277V181.692V180.692H173.245V181.692ZM181.31 181.692V182.692H185.342V181.692V180.692H181.31V181.692ZM189.375 181.692V182.692H193.408V181.692V180.692H189.375V181.692ZM197.44 181.692V182.692H201.473V181.692V180.692H197.44V181.692ZM205.505 181.692V182.692H209.538V181.692V180.692H205.505V181.692ZM213.571 181.692V182.692H217.603V181.692V180.692H213.571V181.692ZM221.636 181.692V182.692H225.668V181.692V180.692H221.636V181.692ZM229.701 181.692V182.692H233.734V181.692V180.692H229.701V181.692ZM237.766 181.692V182.692H241.799V181.692V180.692H237.766V181.692ZM245.832 181.692V182.692H249.864V181.692V180.692H245.832V181.692ZM253.897 181.692V182.692H257.929V181.692V180.692H253.897V181.692ZM261.962 181.692V182.692H265.995V181.692V180.692H261.962V181.692ZM270.027 181.692V182.692H274.06V181.692V180.692H270.027V181.692ZM278.092 181.692V182.692H282.125V181.692V180.692H278.092V181.692ZM286.158 181.692V182.692H290.19V181.692V180.692H286.158V181.692ZM294.223 181.692V182.692H298.255V181.692V180.692H294.223V181.692ZM302.288 181.692V182.692H306.321V181.692V180.692H302.288V181.692ZM310.353 181.692V182.692H314.386V181.692V180.692H310.353V181.692ZM318.418 181.692V182.692H322.451V181.692V180.692H318.418V181.692ZM326.484 181.692V182.692H328.5V181.692V180.692H326.484V181.692Z" fill="black"/>
</svg>
