<svg width="36" height="36" viewBox="0 0 36 36" fill="none" xmlns="http://www.w3.org/2000/svg">
<circle cx="18" cy="18" r="18" fill="url(#paint0_linear_49_4)"/>
<path d="M18 8.83337C16.7963 8.83337 15.6043 9.07048 14.4921 9.53115C13.38 9.99181 12.3694 10.667 11.5182 11.5182C9.79915 13.2373 8.83337 15.5689 8.83337 18C8.83337 20.4312 9.79915 22.7628 11.5182 24.4819C12.3694 25.3331 13.38 26.0083 14.4921 26.4689C15.6043 26.9296 16.7963 27.1667 18 27.1667C20.4312 27.1667 22.7628 26.2009 24.4819 24.4819C26.2009 22.7628 27.1667 20.4312 27.1667 18C27.1667 16.7963 26.9296 15.6043 26.4689 14.4921C26.0083 13.38 25.3331 12.3694 24.4819 11.5182C23.6306 10.667 22.6201 9.99181 21.508 9.53115C20.3958 9.07048 19.2038 8.83337 18 8.83337ZM18 14.6909C19.4392 15.6167 21.135 16.1667 22.9684 16.1667C23.6834 16.1667 24.3709 16.0842 25.0309 15.9284C25.2234 16.5792 25.3334 17.2759 25.3334 18C25.3334 22.0425 22.0425 25.3334 18 25.3334C15.25 25.3334 12.8575 23.8117 11.5834 21.5659L13.1875 19.8334V18.9167C13.1875 18.6128 13.3083 18.3214 13.5231 18.1065C13.738 17.8916 14.0295 17.7709 14.3334 17.7709C14.6373 17.7709 14.9287 17.8916 15.1436 18.1065C15.3585 18.3214 15.4792 18.6128 15.4792 18.9167V19.8334H18M21.6667 17.7709C21.3628 17.7709 21.0714 17.8916 20.8565 18.1065C20.6416 18.3214 20.5209 18.6128 20.5209 18.9167C20.5209 19.2206 20.6416 19.512 20.8565 19.7269C21.0714 19.9418 21.3628 20.0625 21.6667 20.0625C21.9706 20.0625 22.262 19.9418 22.4769 19.7269C22.6918 19.512 22.8125 19.2206 22.8125 18.9167C22.8125 18.6128 22.6918 18.3214 22.4769 18.1065C22.262 17.8916 21.9706 17.7709 21.6667 17.7709Z" fill="white"/>
<defs>
<linearGradient id="paint0_linear_49_4" x1="2" y1="-1.5" x2="23" y2="24" gradientUnits="userSpaceOnUse">
<stop stop-color="#C1281B"/>
<stop offset="1" stop-color="#7E0A00"/>
</linearGradient>
</defs>
</svg>
