<svg width="36" height="36" viewBox="0 0 36 36" fill="none" xmlns="http://www.w3.org/2000/svg">
<circle cx="18" cy="18" r="18" fill="url(#paint0_linear_49_2)"/>
<path d="M16.2 22.3874C15.21 22.3874 14.4 21.5732 14.4 20.5779C14.4 19.5827 15.21 18.7684 16.2 18.7684C17.19 18.7684 18 19.5827 18 20.5779C18 21.5732 17.19 22.3874 16.2 22.3874ZM21.6 25.1017V16.0541H10.8V25.1017H21.6ZM21.6 14.2446C22.59 14.2446 23.4 15.0589 23.4 16.0541V25.1017C23.4 26.097 22.59 26.9113 21.6 26.9113H10.8C9.81 26.9113 9 26.097 9 25.1017V16.0541C9 15.0589 9.81 14.2446 10.8 14.2446H11.7V12.4351C11.7 9.90173 13.68 7.91125 16.2 7.91125C18.72 7.91125 20.7 9.90173 20.7 12.4351V14.2446H21.6ZM16.2 9.72078C14.67 9.72078 13.5 10.897 13.5 12.4351V14.2446H18.9V12.4351C18.9 10.897 17.73 9.72078 16.2 9.72078ZM27 13.3398H25.2V18.7684H27V13.3398ZM27 20.5779H25.2V22.3874H27V20.5779Z" fill="white"/>
<defs>
<linearGradient id="paint0_linear_49_2" x1="2" y1="-1.5" x2="23" y2="24" gradientUnits="userSpaceOnUse">
<stop stop-color="#C1281B"/>
<stop offset="1" stop-color="#7E0A00"/>
</linearGradient>
</defs>
</svg>
